<svg width="28" height="28" viewBox="0 0 28 28" fill="none" xmlns="http://www.w3.org/2000/svg">
<path d="M25.084 15.3541C24.6553 9.67313 20.6587 5.75313 14 5.75313C7.34122 5.75313 3.33591 9.91594 2.94216 15.5991C2.71247 18.9109 3.94404 21.8619 6.42247 23.5441C8.05435 24.6531 10.3337 25.2678 14.0284 25.2678C17.7865 25.2678 19.9412 24.4563 21.5731 23.3581C24.2922 21.5316 25.3312 18.6178 25.084 15.3541Z" fill="#FFC022"/>
<path d="M11.7513 9.31875C10.1281 5.11875 6.5844 2.26187 5.22158 1.83531C4.70752 1.67344 4.06221 1.65812 3.77127 2.13062C3.03627 3.32281 2.09565 7.15094 4.17596 12.5825L11.7513 9.31875Z" fill="#FFC022"/>
<path d="M7.90127 7.48344C8.23814 7.20125 8.4022 6.92563 8.03252 6.35469C7.45939 5.46875 6.42908 4.43406 6.02877 4.11688C5.37252 3.59625 4.86502 3.42125 4.67033 4.25906C4.30939 5.80781 4.33783 7.91 4.72502 9.06938C4.86064 9.47844 5.28064 9.695 5.60439 9.41281L7.90127 7.48344Z" fill="#FFD1D1"/>
<path d="M11.8388 9.84812C12.086 10.0581 12.5869 10.0275 12.8778 9.69062C13.23 9.28156 13.5975 7.90344 13.3678 5.77281C12.3463 5.81 11.3794 5.95656 10.4781 6.20375C11.2066 7.39812 11.3816 9.45875 11.8388 9.84812ZM16.1613 9.84812C15.9141 10.0581 15.4131 10.0275 15.1222 9.69062C14.77 9.28156 14.4025 7.90344 14.6322 5.77281C15.6538 5.81 16.6206 5.95656 17.5219 6.20375C16.7935 7.39812 16.6185 9.45875 16.1613 9.84812Z" fill="#FF9B31"/>
<path d="M17.4781 6.39187C19.2456 3.67719 21.7175 1.85281 22.7435 1.52687C23.251 1.365 23.8416 1.39125 24.1303 1.86594C24.8566 3.05812 25.4713 6.73094 24.0385 11.8737L18.8038 9.34938L17.4781 6.39187Z" fill="#FFC022"/>
<path d="M21.3391 8.36281C21.8706 8.89438 22.3038 9.25094 22.6166 9.59C22.8244 9.81531 23.205 9.7125 23.2663 9.41063C23.8022 6.82938 23.6316 4.62875 23.2663 4.05125C23.0913 3.77563 22.7653 3.70344 22.4678 3.80406C21.9341 3.98125 20.5735 4.99625 19.6131 6.47719C19.5016 6.65 19.5431 6.88188 19.7138 6.99781C20.0594 7.23188 20.6631 7.68469 21.3391 8.36281Z" fill="#FFD1D1"/>
<path d="M12.1778 17.0078C12.1669 16.3341 13.1338 16.0125 14.046 15.9972C14.9603 15.9819 15.9447 16.2794 15.9556 16.9531C15.9666 17.6269 14.8138 18.5128 14.0875 18.5128C13.3635 18.5128 12.191 17.6794 12.1778 17.0078Z" fill="black"/>
<path d="M1.46565 15.5378C1.54002 15.6275 2.43034 15.6144 4.6069 16.6469M0.634399 18.1256C0.634399 18.1256 2.03877 17.6356 4.45377 18.0644M1.92721 20.1884C1.92721 20.1884 2.52659 19.8866 4.69877 19.6962M26.4403 14.7678C26.4403 14.7678 25.6944 14.84 23.391 16.1547M26.7794 17.1697C26.7794 17.1697 25.666 17.0909 23.2685 17.6006M26.3485 19.4797C26.3485 19.4797 25.2919 19.1056 23.1153 18.9875" stroke="#9E9E9E" stroke-width="0.375" stroke-miterlimit="10" stroke-linecap="round"/>
<path d="M21.0197 14.5184C20.9453 15.7237 20.1972 16.3866 19.3462 16.3866C18.4953 16.3866 17.8062 15.5378 17.8062 14.4922C17.8062 13.4466 18.5237 12.5869 19.4797 12.6394C20.5887 12.7028 21.0809 13.5341 21.0197 14.5184ZM10.0625 14.3959C10.2331 15.6231 9.71685 16.3712 8.86154 16.5441C8.00623 16.7169 7.27341 16.1416 7.06123 15.0916C6.84685 14.0394 7.2581 13.0528 8.22935 12.9106C9.35591 12.7466 9.92248 13.3919 10.0625 14.3959Z" fill="#000200"/>
<path d="M9.84158 18.6288C9.27939 18.9941 9.94439 19.8406 10.3338 20.1272C10.7231 20.4138 11.4231 20.7659 12.4491 20.6609C13.661 20.5384 14.0088 19.635 14.0088 19.635C14.0088 19.635 14.4397 20.6413 15.9381 20.6828C17.4585 20.7244 17.9288 19.9019 18.1344 19.6569C18.34 19.4097 18.5456 18.7731 18.1956 18.5281C17.8456 18.2809 17.6006 18.5894 17.231 19.1034C16.8613 19.6175 16.1022 19.9041 15.3628 19.5541C14.6235 19.2041 14.5819 18.0141 14.5819 18.0141L13.5341 18.0753C13.5341 18.0753 13.37 19.1013 12.8975 19.4294C12.425 19.7575 11.2963 19.8406 10.8238 19.1209C10.616 18.8016 10.3141 18.3203 9.84158 18.6288Z" fill="black"/>
</svg>
